<svg width="468" height="140" viewBox="0 0 468 140" fill="none" xmlns="http://www.w3.org/2000/svg">
<path d="M53.1998 139.6C52.2998 139.4 51.3998 139.3 50.4998 138.9C35.1998 132.2 19.9998 125.4 4.79983 118.6C3.69983 118.1 2.59983 117.8 1.49983 117.3C0.299826 116.7 -0.200173 116 0.599827 114.6C4.19983 108.3 7.69983 102 11.2998 95.7C16.4998 86.7 21.7998 77.8 26.9998 68.8C33.3998 57.8 39.7998 46.8 46.0998 35.7C52.1998 25 58.3998 14.3 64.4998 3.60001C64.7998 3.00001 65.1998 2.39999 65.5998 1.89999C66.1998 1.19999 66.7998 0.6 67.3998 0C68.0998 0.7 68.8998 1.30001 69.2998 2.10001C70.6998 4.70001 71.7998 7.39999 73.1998 9.89999C78.8998 19.8 84.5997 29.7 90.2997 39.5C96.1997 49.8 102 60 107.9 70.3C113.8 80.6 119.8 90.9 125.8 101.1C128.1 105.1 130.5 109 132.9 113C134.4 115.5 134.3 116.3 131.8 117.5C129 118.8 126.1 119.8 123.2 121C116.9 123.7 110.7 126.6 104.4 129.4C97.5997 132.5 90.7997 135.6 83.9997 138.6C83.2997 138.9 82.5997 138.8 81.7997 138.9C81.8997 138.1 81.6997 137.1 82.0997 136.6C83.7997 134.5 85.5997 132.6 87.3997 130.8C90.9997 127.1 94.6997 123.6 98.2997 119.9C100.1 118 100.3 115.9 98.4997 112.6C95.3997 107 92.2997 101.6 89.0997 96.1C84.4997 88.1 79.9997 80.1 75.3998 72C73.5998 68.7 71.6998 65.5 69.7998 62.2C69.2998 61.4 68.9998 60.4 68.5998 59.5C68.2998 58.9 67.8998 58.5 67.4998 58C67.0998 58.4 66.3998 58.8 66.1998 59.3C63.8998 63.5 61.7998 67.8 59.3998 71.8C51.1998 85.9 42.8998 99.9 34.6998 114C33.2998 116.5 33.5998 117.5 35.6998 119.6C41.2998 125.3 46.7998 131.2 52.3998 137C52.8998 137.6 53.1998 138.3 53.5998 138.9C53.3998 139.1 53.2998 139.3 53.1998 139.6Z" fill="#05014B"/>
<path d="M81.2002 116.2C71.7002 116.2 62.4002 116.2 52.7002 116.2C53.2002 115.3 53.5002 114.7 53.8002 114.1C57.7002 107.4 61.6002 100.7 65.6002 93.8997C65.9002 93.3997 66.2002 92.7997 66.5002 92.3997C67.3002 91.2997 67.9002 91.4998 68.5002 92.5998C72.6002 100.1 76.7002 107.6 80.9002 115.1C81.0002 115.4 81.0002 115.6 81.2002 116.2Z" fill="#05014B"/>
<path d="M193.7 106V102.3C200 101.4 200 100.4 198.6 96.0004C197.6 93.0004 196 88.6004 194.5 84.6004H175.1C174 87.6004 172.7 91.4004 171.6 94.6004C169.5 100.9 171.8 101.7 179.8 102.4V106.1H155.2V102.4C161.5 101.5 163.1 100.7 166.4 92.3004L187.1 40.8004L191.8 39.9004C198.1 57.2004 204.9 75.0004 211.4 91.5004C215.1 100.8 216 101.5 222.5 102.2V105.9H193.8V106H193.7ZM185 58.4004C182.1 65.6004 179.3 72.3004 176.8 79.5004H192.6L185 58.4004Z" fill="#05014B"/>
<path d="M270.4 65.1008C265 66.0008 264.2 67.0008 262.1 71.8008C258.6 79.7008 253.5 92.0008 247.5 107.101H243.4C238.4 94.8008 233.8 83.0008 229 71.6008C227.2 67.3008 226.2 66.1008 221.1 65.3008V61.9008H245.9V65.3008C241.4 66.2008 240.8 67.0008 242 70.3008C244.4 77.1008 248.1 86.7008 249.7 90.8008C251.4 86.4008 254.8 77.8008 257.1 70.8008C258.1 67.8008 258 65.9008 251.7 65.2008V61.8008H270.4V65.2008V65.1008Z" fill="#05014B"/>
<path d="M293 90.3996C292 91.4996 291.2 92.7996 291.2 93.7996C291.2 95.3996 293.1 97.4996 296.9 97.4996C300.1 97.4996 304.8 97.4996 308.1 97.4996C314.2 97.4996 323.1 99.8996 323.1 109.8C323.1 121 309.3 130 296.1 130C283.1 130 277.2 123.7 277.2 118.2C277.2 115.8 278.1 114.2 280.2 112.7C282.9 110.8 285.4 109.2 287.6 107.7C283.6 106.2 281.5 104.2 280.2 102.1C279 100.5 278.4 97.9996 278.6 96.5996C283.2 94.6996 287.5 91.5996 289.3 89.2996L293 90.3996ZM297.8 91.3996C286.5 91.3996 279.1 85.2996 279.1 76.3996C279.1 65.6996 289.4 60.5996 298.5 60.5996C302.6 60.5996 306 61.4996 309.7 63.1996C313.8 63.1996 320.9 62.4996 323.5 61.8996L324 62.7996C323.4 64.5996 322.1 67.8996 320.3 68.9996C318.6 68.9996 315.8 68.5996 314.5 68.4996C316 70.2996 316.9 72.8996 316.9 76.6996C316.7 86.3996 307.5 91.3996 297.8 91.3996ZM299 108C293.9 108 291.5 108.6 290 109.9C288.3 111.2 287.2 113.3 287.2 115.4C287.2 120.6 292.2 124.8 300.7 124.8C308.4 124.8 313.1 121.3 313.1 115.8C313.1 112.1 310.7 109.7 307.6 109C305 108.2 302.7 108 299 108ZM297.9 64.3996C294.9 64.3996 291.7 68.0996 291.7 75.3996C291.7 82.1996 294 87.6996 298.6 87.6996C302.5 87.6996 304.7 83.5996 304.7 76.4996C304.7 70.0996 302.7 64.3996 297.9 64.3996Z" fill="#05014B"/>
<path d="M382.8 103.6C376.8 104.5 370.5 105.7 363.9 107.1C363.9 104.9 363.9 102.5 363.9 100.3C359.8 103.7 355.6 107.1 350.1 107.1C341.7 107.1 337.1 101.7 337.1 92.9V72.3C337.1 67.7 336.5 67.2 333.8 66.6L331.7 66V62.8C336.8 62.6 344.6 61.9 350.2 61.1C350 65.2 350 70.5 350 76.1V90.6C350 97.1 353.3 99.2 356.8 99.2C359.6 99.2 361.8 98.6 364 96.3V72.3C364 67.7 363.5 66.9 360.7 66.5L357.7 65.9V62.7C363.4 62.5 371.9 61.8 376.9 61V93.5C376.9 98.7 377.5 99.8 380.7 100.1L382.9 100.3V103.6H382.8Z" fill="#05014B"/>
<path d="M421.3 74.6996C418.7 67.7996 415.3 64.5996 410.6 64.5996C407.8 64.5996 405.4 66.4996 405.4 69.7996C405.4 73.2996 407.8 75.1996 413.1 77.4996C421.1 80.9996 426.6 84.3996 426.6 92.3996C426.6 102.4 417.1 107.3 408.5 107.3C403.3 107.3 397.9 105.4 395.8 104.3C395.4 102 394.5 95.1996 394.2 91.5996L397.5 90.9996C399.6 97.2996 403.7 103.2 410.2 103.2C414 103.2 415.9 100.9 415.9 97.9996C415.9 94.9996 414.4 92.5996 408.2 89.5996C401.6 86.3996 395.3 82.8996 395.3 74.5996C395.3 66.6996 401.8 60.5996 412.3 60.5996C417 60.5996 420.8 61.5996 423 62.0996C423.2 64.7996 424.2 71.0996 424.6 73.8996L421.3 74.6996Z" fill="#05014B"/>
<path d="M458.6 106.1C456.9 107 455.3 107.2 454.6 107.2C446.9 107.2 442.3 103.7 442.3 94.5V66.7H436L435.4 65.5L438.3 61.7H442.4V53.4C445.8 51 450.7 47.8 454.2 45.5L455.5 46.4C455.4 49.1 455.3 54.3 455.3 61.9H465.3C466.2 62.9 465.8 66 464.4 66.9H455.3V91.2C455.3 99 458.5 99.8 460.4 99.8C462.1 99.8 463.4 99.6 465.1 98.8L466.1 102.3L458.6 106.1Z" fill="#05014B"/>
</svg>
